<?xml version="1.0" standalone="no"?>
<!DOCTYPE svg PUBLIC "-//W3C//DTD SVG 20010904//EN"
 "http://www.w3.org/TR/2001/REC-SVG-20010904/DTD/svg10.dtd">
<svg version="1.0" xmlns="http://www.w3.org/2000/svg"
 width="300.000000pt" height="113.000000pt" viewBox="0 0 300.000000 113.000000"
 preserveAspectRatio="xMidYMid meet">
<metadata>
Created by potrace 1.10, written by Peter Selinger 2001-2011
</metadata>
<g transform="translate(0.000000,113.000000) scale(0.100000,-0.100000)"
fill="#000000" stroke="none">
<path d="M392 868 c-17 -17 -15 -45 6 -60 13 -10 18 -27 18 -75 1 -55 -2 -62
-23 -72 -19 -9 -29 -7 -48 5 -14 9 -25 22 -25 29 0 14 -25 27 -34 18 -14 -15
-3 -32 32 -50 28 -15 38 -27 40 -49 3 -27 -1 -31 -66 -55 -39 -15 -79 -25 -94
-22 -29 6 -46 -21 -27 -43 15 -18 24 -18 43 1 9 9 47 29 85 45 56 23 72 26 81
15 11 -14 -1 -58 -19 -70 -18 -11 -12 -35 9 -35 14 0 20 7 20 23 1 85 40 88
71 4 18 -47 20 -63 11 -83 -10 -20 -8 -28 8 -44 24 -24 30 -24 54 -7 23 17 18
59 -10 71 -28 12 -70 121 -55 140 10 11 24 9 84 -16 40 -17 77 -35 84 -40 7
-6 14 -5 18 2 7 11 0 25 -13 25 -4 0 -40 11 -79 25 -54 18 -73 29 -73 43 0 24
45 40 69 25 35 -22 77 16 51 47 -18 22 -44 18 -68 -10 -22 -25 -62 -34 -62
-15 0 6 -10 15 -22 21 -21 9 -23 17 -21 70 1 39 7 67 17 78 29 32 13 71 -29
71 -12 0 -26 -5 -33 -12z m54 -277 c-9 -14 -33 -14 -41 -1 -4 6 -1 18 6 26 11
13 14 13 27 0 8 -8 11 -19 8 -25z"/>
<path d="M800 605 c0 -96 3 -115 15 -115 12 0 15 19 15 115 0 96 -3 115 -15
115 -12 0 -15 -19 -15 -115z"/>
<path d="M870 605 c0 -100 2 -115 16 -115 15 0 16 10 10 80 -3 44 -4 80 -1 80
2 0 21 -36 41 -80 20 -44 42 -80 49 -80 7 0 29 36 49 80 20 44 39 80 42 80 4
0 3 -36 0 -80 -6 -69 -5 -80 8 -80 14 0 16 17 16 115 0 86 -3 115 -12 114 -7
0 -33 -43 -58 -96 l-46 -96 -44 96 c-25 53 -51 97 -57 97 -10 0 -13 -30 -13
-115z"/>
<path d="M1216 688 c-8 -18 -30 -68 -50 -112 -41 -90 -40 -86 -22 -86 7 0 19
13 25 28 11 26 15 28 73 27 58 -1 62 -2 71 -28 5 -15 15 -27 23 -27 8 0 14 2
14 4 0 16 -99 221 -108 224 -7 2 -19 -11 -26 -30z m51 -68 l21 -50 -48 0 -48
0 21 50 c11 28 24 50 27 50 3 0 16 -22 27 -50z"/>
<path d="M1423 699 c-29 -18 -53 -62 -53 -96 0 -29 31 -79 59 -96 69 -41 161
1 161 72 0 30 -1 31 -45 31 -32 0 -45 -4 -45 -14 0 -10 13 -16 36 -18 l36 -3
-22 -27 c-16 -21 -30 -28 -56 -28 -47 0 -69 13 -84 49 -25 60 15 121 78 121
21 0 43 -5 49 -11 8 -8 13 -7 18 2 12 18 -23 39 -64 39 -20 0 -50 -9 -68 -21z"/>
<path d="M1630 718 c0 -2 -1 -54 -3 -116 l-2 -112 68 0 c53 0 67 3 67 15 0 12
-13 15 -55 15 l-55 0 0 35 c0 35 0 35 45 35 33 0 45 4 45 15 0 11 -12 15 -45
15 -45 0 -45 0 -45 35 l0 35 55 0 c42 0 55 3 55 15 0 12 -14 15 -65 15 -36 0
-65 -1 -65 -2z"/>
<path d="M1790 605 c0 -96 3 -115 15 -115 11 0 15 12 15 50 l0 50 45 0 c33 0
45 4 45 15 0 11 -12 15 -45 15 -45 0 -45 0 -45 35 l0 35 55 0 c42 0 55 3 55
15 0 12 -14 15 -70 15 l-70 0 0 -115z"/>
<path d="M1984 686 c-29 -29 -34 -41 -34 -81 0 -40 5 -52 34 -81 46 -46 100
-48 150 -3 84 73 34 199 -79 199 -29 0 -45 -8 -71 -34z m140 -27 c28 -33 32
-59 14 -92 -17 -33 -39 -46 -79 -47 -46 0 -81 35 -82 84 -2 82 94 118 147 55z"/>
<path d="M2210 605 c0 -96 3 -115 15 -115 11 0 15 11 15 40 0 37 2 40 28 40
21 0 33 -9 52 -40 15 -24 32 -40 44 -40 20 0 17 7 -28 58 -20 22 -20 22 2 42
14 14 22 33 22 55 0 47 -37 75 -101 75 l-49 0 0 -115z m114 69 c19 -18 20 -28
6 -55 -8 -14 -21 -19 -50 -19 l-40 0 0 45 c0 45 0 45 34 45 19 0 42 -7 50 -16z"/>
<path d="M2458 704 c-76 -41 -74 -159 2 -199 74 -38 160 8 160 85 0 17 -7 20
-45 20 -33 0 -45 -4 -45 -15 0 -10 10 -15 30 -15 34 0 39 -18 12 -43 -28 -26
-88 -22 -117 8 -70 70 17 182 105 135 26 -14 39 9 15 27 -24 17 -83 16 -117
-3z"/>
<path d="M2650 605 l0 -115 70 0 c56 0 70 3 70 15 0 12 -13 15 -55 15 l-55 0
0 35 c0 34 1 35 40 35 29 0 40 4 40 15 0 11 -11 15 -40 15 -39 0 -40 1 -40 35
l0 35 55 0 c42 0 55 3 55 15 0 12 -14 15 -70 15 l-70 0 0 -115z"/>
</g>
</svg>
